<?xml version="1.0" encoding="utf-8"?>
<!-- Generator: Adobe Illustrator 23.1.0, SVG Export Plug-In . SVG Version: 6.00 Build 0)  -->
<svg version="1.1" id="图层_1" xmlns="http://www.w3.org/2000/svg" xmlns:xlink="http://www.w3.org/1999/xlink" x="0px" y="0px"
	 viewBox="0 0 141.73 85.04" style="enable-background:new 0 0 141.73 85.04;" xml:space="preserve">
<style type="text/css">
	.st0{fill:#D71718;}
	.st1{fill:#D92B1F;}
	.st2{fill:#FFFFFF;}
</style>
<g>
	<path class="st0" d="M83.31,59.53c-73.12,0-73.12,0-73.12,0c-8.4,0-8.35-0.73-8.39-2.69C1.5,44.3,6.1,33.35,14.74,24.21
		c3.76-3.99,8.15-7.1,13.15-9.47c2.84-1.34,5.63-2.36,8.76-2.48c1.21-0.04,2.16,0.39,1.72,1.59c-0.14,0.4-0.14,0.8-0.35,1.16
		c-0.73,1.62-2.03,2.42-3.59,3.33c-3.67,2.12-3.11,2.87-5.26,5.44c-1.06,1.28-1.43,2.85-2.38,4.17c-0.89,1.25-1.72,2.52-2.54,3.85
		c-2.03,3.28-5.35,5.46-9.27,6.32c-3.44,0.75-5.43,3.02-6.67,6.11c-0.37,0.92-0.33,1.86,0.06,2.79c1.05,2.49,3.14,3.9,5.57,4.48
		c1.69,0.4,2.2,0.36,4.8,0.44c5.79-0.22,9.53-0.31,13.57-2.63c4.24-2.43,8.19-5.41,12.08-8.39c1.89-1.46,3.65-1.42,5.74-0.88
		c8.59,2.23,16.29,6.64,24.4,10.01c3.52,1.46,6.78,3.25,10.09,5.33C91.27,59.53,87.74,59.53,83.31,59.53z"/>
	<path class="st1" d="M87.4,28.68c1.92,2.31,3.44,4.88,4.8,7.54c0.35,0.69,0.95,1.5-0.45,1.79c-1.68,1.04-4.21-1.83-5.66-2.46
		c-3.04-1.32-4.41-1.76-7.52-2.97c-2.83-1.09-5.41-2.63-7.86-4.38c-1.03-0.73-2.22-1.12-3.39-1.55c-1.44-0.53-4.5-2.59-5.66-2.97
		c-4.26-1.36,1.08-5.59,1.3-9.22c0.12-2.02,3.06-1.36,4.43-0.73c3.97,1.82,7.97,3.66,11.42,6.44C81.98,22.72,84.66,25.73,87.4,28.68
		z"/>
	<path class="st2" d="M47.31,7.69c1.49-2.71,1.93-2.84,4.76-1.85c2.27,0.8,4.04,2.21,5.49,4.08c0.84,4.21-1.71,7.12-3.9,10.16
		c-0.8,1.11-1.89,2.05-1.51,3.64c0.11,0.32,0.07,0.71,0.48,0.87c1.09,0.81,2.41,1.13,3.64,1.65c1.13,0.33,2.25,0.66,3.37,1
		c1.6,0.46,3.08,1.31,4.76,1.54c2.26,0.9,4.38,2.07,6.35,3.52c2.65,1.93,5.82,2.8,8.79,4.06c3.64,1.55,7.31,3.02,10.73,5.11
		c2.97,1.82,6.45,2.87,9.89,3.53c4.94,0.96,9.55,2.73,14.12,4.71c1.18,0.51,2.35,0.72,3.63,0.72c6.41-0.03,12.81-0.03,19.22,0
		c0.7,0,1.47-0.3,2.11,0.27c0.14,0.14,0.29,0.27,0.42,0.4c0.81,1.88-0.29,3.26-1.34,4.53c-2,2.41-4.42,4.33-7.35,5.52
		c-6.19,2.51-12.26,5.41-19.05,6.11c-3.22,0.34-6.31,0.21-9.02-1.87c-2.68-2.07-5.84-3.37-8.51-5.51c-1.84-1.48-3.43-3.22-5.32-4.63
		c-6.38-4.79-13.29-8.75-20.44-12.18c-4.4-2.12-9.02-3.98-13.84-5.11c-1.58-0.37-3.11-0.88-4.53-1.71c-1.67-0.97-3.51-1.04-5.35-1
		c-1.08,0.02-2.12,0.45-2.65,1.37c-2.01,3.53-5.36,5.41-8.73,7.22c-2.4,1.29-4.55,3.04-7.15,3.92c-4.79,1.62-9.69,1.7-14.6,0.7
		c-2.36-0.48-2.8-1.55-1.92-3.84c1.26-1.16,2.87-1.4,4.46-1.66c4.07-1.03,7.44-3.43,10.83-5.71c3.33-2.24,6.02-5.09,7.43-9.04
		c0.74-2.1,2.24-3.76,4.03-5.16C41.74,19.03,44.46,13.31,47.31,7.69z"/>
	<path class="st2" d="M3.32,64.58c-0.08-2.57,4.8-1.3,4.96,1.16c0.15,2.29-0.05,4.33,0.1,6.99c0.1,1.76,0,2.29,4.81,2.29
		c2.84,0,6.57-1,8.07,1.26c2.32,3.47-0.19,3.47-2.53,3.48c-3.5,0.01-7.98-0.01-11.51,0c-2.88,0-3.56-0.92-3.68-2.33
		C3.16,72.88,3.37,66.49,3.32,64.58z"/>
	<path class="st2" d="M23.16,77.09c1.65-2.77,4.88-7.8,7.18-11.81c1.58-2.75,1.99-2.83,3.95-0.19c2.26,3.03,4.41,6.18,6.49,9.34
		c0.61,0.92,1.53,1.41,2.16,2.23c1.12,1.47,0.7,2.99-0.91,3c-3.14,0.02-5.62,0.04-9.04,0c-1.12-0.03-1.69-1.11-1.78-2.33
		c-0.1-1.32,0.93-2.04,2.08-1.98c0.83,0.05,2.62,0.36,2.19-0.7c-0.45-1.09-2.19-3.49-2.86-3.52c-0.57-0.02-1.37,1.57-1.37,1.57
		c-1.09,2.04-1.91,3.78-3.11,5.36c-0.88,1.17-1.97,1.75-3.33,1.66C23.41,79.63,22.31,78.54,23.16,77.09z"/>
	<path class="st2" d="M45.49,66.18c-0.05-1.45,2.03-3.08,3.85-1.72c2.88,2.17,4.14,3.61,6.86,5.77c0.66,0.52,4.37,3.91,4.4,3.09
		c0.14-3.36,0.03-5.92-0.1-6.95c-0.17-1.38,0.72-3.19,2.06-3.19c1.53,0,2.36,1.38,2.39,2.16c0.03,0.8-0.14,2.2-0.12,3.61
		c0.03,1.28,0,3.49,0.04,4.27c0.07,3.64,0.58,4.1-0.56,5.47c-0.54,0.65-2.08,1.28-3.53,0.33c-1.93-1.28-3.35-2.5-5.16-4.02
		c-0.9-0.87-2.85-2.49-3.65-3.11c-1.16-0.9-1.52-0.81-1.53-0.32c-0.01,1.24-0.03,2.56-0.08,4.4c-0.04,1.34-0.57,3.54-2.38,3.75
		c-0.85,0.11-2.51,0-2.51-3.85C45.49,75.88,45.6,68.94,45.49,66.18z"/>
	<path class="st2" d="M86.28,76.13c-0.99,2.47-3.82,3.48-6.41,3.55c-2.6,0.07-3.19,0.09-6.03,0.07c-3.54-0.02-6.14,0.1-6.26-2.34
		c-0.12-2.35-0.1-8.4-0.11-11.46c0-1.8,0.47-2.69,3.3-2.73c2.58-0.03,5.12-0.09,7.93-0.01c2.43,0.06,6.37,1.7,7.35,3.59
		C87.4,69.42,87.32,73.53,86.28,76.13z M72.87,66.97c-1.08,0.07-1.01,1.67-0.98,5.23c0,4.02-0.17,3.81,1.07,3.88
		c1.54,0.09,3.1,0,5.22,0.01c3.1,0.02,4.43-1.92,4.43-4.55c0-3-2.07-4.07-3.53-4.34C77,66.83,74.93,66.83,72.87,66.97z"/>
</g>
</svg>
